<mxfile host="Electron" modified="2024-07-28T12:08:32.549Z" agent="Mozilla/5.0 (Windows NT 10.0; Win64; x64) AppleWebKit/537.36 (KHTML, like Gecko) draw.io/24.5.3 Chrome/124.0.6367.207 Electron/30.0.6 Safari/537.36" etag="BHMVQWG6D7ZZMtn4NGaH" version="24.5.3" type="device">
  <diagram name="Page-1" id="d7Fu7SwxpMkGCOj5jkah">
    <mxGraphModel dx="1459" dy="2022" grid="1" gridSize="10" guides="1" tooltips="1" connect="1" arrows="1" fold="1" page="1" pageScale="1" pageWidth="1169" pageHeight="827" math="0" shadow="0">
      <root>
        <mxCell id="0" />
        <mxCell id="1" parent="0" />
        <mxCell id="F4rRmqgm7zPYYx4MkBIU-1" value="&lt;h1 style=&quot;margin-top: 0px;&quot;&gt;Features&lt;/h1&gt;&lt;p&gt;&lt;/p&gt;&lt;ol&gt;&lt;li&gt;User Registration&lt;/li&gt;&lt;li&gt;Stream subscription&lt;/li&gt;&lt;li&gt;Stream recommendation&lt;/li&gt;&lt;/ol&gt;&lt;p&gt;&lt;/p&gt;&lt;p&gt;&lt;br&gt;&lt;/p&gt;" style="text;html=1;whiteSpace=wrap;overflow=hidden;rounded=0;" parent="1" vertex="1">
          <mxGeometry x="52" y="-780" width="180" height="110" as="geometry" />
        </mxCell>
        <mxCell id="F4rRmqgm7zPYYx4MkBIU-5" style="edgeStyle=orthogonalEdgeStyle;rounded=0;orthogonalLoop=1;jettySize=auto;html=1;" parent="1" source="F4rRmqgm7zPYYx4MkBIU-2" target="F4rRmqgm7zPYYx4MkBIU-4" edge="1">
          <mxGeometry relative="1" as="geometry" />
        </mxCell>
        <mxCell id="F4rRmqgm7zPYYx4MkBIU-2" value="Content Viewer" style="sketch=0;outlineConnect=0;fontColor=#232F3E;gradientColor=none;fillColor=#232F3D;strokeColor=none;dashed=0;verticalLabelPosition=bottom;verticalAlign=top;align=center;html=1;fontSize=12;fontStyle=0;aspect=fixed;pointerEvents=1;shape=mxgraph.aws4.user;" parent="1" vertex="1">
          <mxGeometry x="52" y="-260" width="78" height="78" as="geometry" />
        </mxCell>
        <mxCell id="F4rRmqgm7zPYYx4MkBIU-8" style="edgeStyle=orthogonalEdgeStyle;rounded=0;orthogonalLoop=1;jettySize=auto;html=1;entryX=0.5;entryY=1;entryDx=0;entryDy=0;" parent="1" source="F4rRmqgm7zPYYx4MkBIU-3" target="F4rRmqgm7zPYYx4MkBIU-7" edge="1">
          <mxGeometry relative="1" as="geometry" />
        </mxCell>
        <mxCell id="F4rRmqgm7zPYYx4MkBIU-23" style="edgeStyle=orthogonalEdgeStyle;rounded=0;orthogonalLoop=1;jettySize=auto;html=1;entryX=0;entryY=0.5;entryDx=0;entryDy=0;" parent="1" source="F4rRmqgm7zPYYx4MkBIU-3" target="F4rRmqgm7zPYYx4MkBIU-22" edge="1">
          <mxGeometry relative="1" as="geometry" />
        </mxCell>
        <mxCell id="F4rRmqgm7zPYYx4MkBIU-29" style="edgeStyle=orthogonalEdgeStyle;rounded=0;orthogonalLoop=1;jettySize=auto;html=1;entryX=0;entryY=0.5;entryDx=0;entryDy=0;" parent="1" source="F4rRmqgm7zPYYx4MkBIU-3" target="F4rRmqgm7zPYYx4MkBIU-26" edge="1">
          <mxGeometry relative="1" as="geometry">
            <Array as="points">
              <mxPoint x="580" y="-221" />
              <mxPoint x="580" y="-110" />
            </Array>
          </mxGeometry>
        </mxCell>
        <mxCell id="Cm2MxR2_ZGQXVBMsRqpf-3" style="edgeStyle=orthogonalEdgeStyle;rounded=0;orthogonalLoop=1;jettySize=auto;html=1;exitX=1;exitY=0.5;exitDx=0;exitDy=0;exitPerimeter=0;" edge="1" parent="1" source="F4rRmqgm7zPYYx4MkBIU-3">
          <mxGeometry relative="1" as="geometry">
            <mxPoint x="635" y="-500" as="targetPoint" />
            <Array as="points">
              <mxPoint x="528" y="-220" />
              <mxPoint x="635" y="-220" />
              <mxPoint x="635" y="-499" />
            </Array>
          </mxGeometry>
        </mxCell>
        <mxCell id="F4rRmqgm7zPYYx4MkBIU-3" value="API Gateway" style="sketch=0;points=[[0,0,0],[0.25,0,0],[0.5,0,0],[0.75,0,0],[1,0,0],[0,1,0],[0.25,1,0],[0.5,1,0],[0.75,1,0],[1,1,0],[0,0.25,0],[0,0.5,0],[0,0.75,0],[1,0.25,0],[1,0.5,0],[1,0.75,0]];outlineConnect=0;fontColor=#232F3E;fillColor=#8C4FFF;strokeColor=#ffffff;dashed=0;verticalLabelPosition=bottom;verticalAlign=top;align=center;html=1;fontSize=12;fontStyle=0;aspect=fixed;shape=mxgraph.aws4.resourceIcon;resIcon=mxgraph.aws4.api_gateway;" parent="1" vertex="1">
          <mxGeometry x="450" y="-260" width="78" height="78" as="geometry" />
        </mxCell>
        <mxCell id="F4rRmqgm7zPYYx4MkBIU-6" style="edgeStyle=orthogonalEdgeStyle;rounded=0;orthogonalLoop=1;jettySize=auto;html=1;" parent="1" source="F4rRmqgm7zPYYx4MkBIU-4" target="F4rRmqgm7zPYYx4MkBIU-3" edge="1">
          <mxGeometry relative="1" as="geometry" />
        </mxCell>
        <mxCell id="F4rRmqgm7zPYYx4MkBIU-9" style="edgeStyle=orthogonalEdgeStyle;rounded=0;orthogonalLoop=1;jettySize=auto;html=1;entryX=0;entryY=0.5;entryDx=0;entryDy=0;" parent="1" source="F4rRmqgm7zPYYx4MkBIU-4" target="F4rRmqgm7zPYYx4MkBIU-7" edge="1">
          <mxGeometry relative="1" as="geometry">
            <Array as="points">
              <mxPoint x="270" y="-400" />
            </Array>
          </mxGeometry>
        </mxCell>
        <mxCell id="F4rRmqgm7zPYYx4MkBIU-10" value="User Registration/Login/Forget Password" style="edgeLabel;html=1;align=center;verticalAlign=middle;resizable=0;points=[];" parent="F4rRmqgm7zPYYx4MkBIU-9" vertex="1" connectable="0">
          <mxGeometry x="-0.3961" relative="1" as="geometry">
            <mxPoint as="offset" />
          </mxGeometry>
        </mxCell>
        <mxCell id="F4rRmqgm7zPYYx4MkBIU-4" value="Frontend Appications/Web" style="rounded=1;whiteSpace=wrap;html=1;" parent="1" vertex="1">
          <mxGeometry x="210" y="-251" width="120" height="60" as="geometry" />
        </mxCell>
        <mxCell id="F4rRmqgm7zPYYx4MkBIU-11" style="edgeStyle=orthogonalEdgeStyle;rounded=0;orthogonalLoop=1;jettySize=auto;html=1;" parent="1" source="F4rRmqgm7zPYYx4MkBIU-7" target="F4rRmqgm7zPYYx4MkBIU-12" edge="1">
          <mxGeometry relative="1" as="geometry">
            <mxPoint x="489" y="-500" as="targetPoint" />
          </mxGeometry>
        </mxCell>
        <mxCell id="F4rRmqgm7zPYYx4MkBIU-7" value="IAM Platform Provider&lt;br&gt;(AWS Cognito/Okta)&lt;div&gt;&lt;br/&gt;&lt;/div&gt;" style="rounded=1;whiteSpace=wrap;html=1;" parent="1" vertex="1">
          <mxGeometry x="429" y="-430" width="120" height="60" as="geometry" />
        </mxCell>
        <mxCell id="F4rRmqgm7zPYYx4MkBIU-12" value="Credentials DB" style="shape=cylinder3;whiteSpace=wrap;html=1;boundedLbl=1;backgroundOutline=1;size=15;" parent="1" vertex="1">
          <mxGeometry x="459" y="-570" width="60" height="80" as="geometry" />
        </mxCell>
        <mxCell id="F4rRmqgm7zPYYx4MkBIU-14" style="edgeStyle=orthogonalEdgeStyle;rounded=0;orthogonalLoop=1;jettySize=auto;html=1;entryX=1;entryY=0.5;entryDx=0;entryDy=0;exitX=0.5;exitY=0;exitDx=0;exitDy=0;" parent="1" source="F4rRmqgm7zPYYx4MkBIU-13" target="F4rRmqgm7zPYYx4MkBIU-7" edge="1">
          <mxGeometry relative="1" as="geometry">
            <Array as="points">
              <mxPoint x="730" y="-400" />
            </Array>
          </mxGeometry>
        </mxCell>
        <mxCell id="F4rRmqgm7zPYYx4MkBIU-15" value="Retrieve User information" style="edgeLabel;html=1;align=center;verticalAlign=middle;resizable=0;points=[];" parent="F4rRmqgm7zPYYx4MkBIU-14" vertex="1" connectable="0">
          <mxGeometry x="0.1149" relative="1" as="geometry">
            <mxPoint x="69" y="20" as="offset" />
          </mxGeometry>
        </mxCell>
        <mxCell id="F4rRmqgm7zPYYx4MkBIU-44" style="edgeStyle=orthogonalEdgeStyle;rounded=0;orthogonalLoop=1;jettySize=auto;html=1;entryX=0;entryY=0.5;entryDx=0;entryDy=0;" parent="1" source="F4rRmqgm7zPYYx4MkBIU-13" target="F4rRmqgm7zPYYx4MkBIU-43" edge="1">
          <mxGeometry relative="1" as="geometry">
            <Array as="points">
              <mxPoint x="810" y="-330" />
              <mxPoint x="810" y="-430" />
            </Array>
          </mxGeometry>
        </mxCell>
        <mxCell id="F4rRmqgm7zPYYx4MkBIU-13" value="User Profile Service" style="rounded=1;whiteSpace=wrap;html=1;" parent="1" vertex="1">
          <mxGeometry x="670" y="-360" width="120" height="60" as="geometry" />
        </mxCell>
        <mxCell id="F4rRmqgm7zPYYx4MkBIU-16" value="User Activity DB" style="shape=cylinder3;whiteSpace=wrap;html=1;boundedLbl=1;backgroundOutline=1;size=15;" parent="1" vertex="1">
          <mxGeometry x="790" y="-680" width="60" height="80" as="geometry" />
        </mxCell>
        <mxCell id="F4rRmqgm7zPYYx4MkBIU-20" style="edgeStyle=orthogonalEdgeStyle;rounded=0;orthogonalLoop=1;jettySize=auto;html=1;entryX=0.5;entryY=1;entryDx=0;entryDy=0;" parent="1" source="F4rRmqgm7zPYYx4MkBIU-19" target="F4rRmqgm7zPYYx4MkBIU-4" edge="1">
          <mxGeometry relative="1" as="geometry" />
        </mxCell>
        <mxCell id="F4rRmqgm7zPYYx4MkBIU-19" value="Content Creator" style="sketch=0;outlineConnect=0;fontColor=#232F3E;gradientColor=none;fillColor=#232F3D;strokeColor=none;dashed=0;verticalLabelPosition=bottom;verticalAlign=top;align=center;html=1;fontSize=12;fontStyle=0;aspect=fixed;pointerEvents=1;shape=mxgraph.aws4.user;" parent="1" vertex="1">
          <mxGeometry x="52" y="-80" width="78" height="78" as="geometry" />
        </mxCell>
        <mxCell id="F4rRmqgm7zPYYx4MkBIU-25" style="edgeStyle=orthogonalEdgeStyle;rounded=0;orthogonalLoop=1;jettySize=auto;html=1;" parent="1" source="F4rRmqgm7zPYYx4MkBIU-22" target="F4rRmqgm7zPYYx4MkBIU-24" edge="1">
          <mxGeometry relative="1" as="geometry" />
        </mxCell>
        <mxCell id="F4rRmqgm7zPYYx4MkBIU-22" value="Manage Content Service" style="rounded=1;whiteSpace=wrap;html=1;" parent="1" vertex="1">
          <mxGeometry x="670" y="-251" width="120" height="60" as="geometry" />
        </mxCell>
        <mxCell id="F4rRmqgm7zPYYx4MkBIU-24" value="User Content Metadata DB" style="shape=cylinder3;whiteSpace=wrap;html=1;boundedLbl=1;backgroundOutline=1;size=15;" parent="1" vertex="1">
          <mxGeometry x="920" y="-261" width="60" height="80" as="geometry" />
        </mxCell>
        <mxCell id="F4rRmqgm7zPYYx4MkBIU-36" style="edgeStyle=orthogonalEdgeStyle;rounded=0;orthogonalLoop=1;jettySize=auto;html=1;entryX=0.5;entryY=0;entryDx=0;entryDy=0;" parent="1" source="F4rRmqgm7zPYYx4MkBIU-26" target="F4rRmqgm7zPYYx4MkBIU-35" edge="1">
          <mxGeometry relative="1" as="geometry">
            <Array as="points">
              <mxPoint x="730" y="-50" />
              <mxPoint x="730" y="-50" />
            </Array>
          </mxGeometry>
        </mxCell>
        <mxCell id="F4rRmqgm7zPYYx4MkBIU-26" value="User Relation Service" style="rounded=1;whiteSpace=wrap;html=1;" parent="1" vertex="1">
          <mxGeometry x="670" y="-140" width="120" height="60" as="geometry" />
        </mxCell>
        <mxCell id="F4rRmqgm7zPYYx4MkBIU-27" value="User Relations DB" style="shape=cylinder3;whiteSpace=wrap;html=1;boundedLbl=1;backgroundOutline=1;size=15;" parent="1" vertex="1">
          <mxGeometry x="920" y="-150" width="60" height="80" as="geometry" />
        </mxCell>
        <mxCell id="F4rRmqgm7zPYYx4MkBIU-28" style="edgeStyle=orthogonalEdgeStyle;rounded=0;orthogonalLoop=1;jettySize=auto;html=1;entryX=0;entryY=0.5;entryDx=0;entryDy=0;entryPerimeter=0;" parent="1" source="F4rRmqgm7zPYYx4MkBIU-26" target="F4rRmqgm7zPYYx4MkBIU-27" edge="1">
          <mxGeometry relative="1" as="geometry" />
        </mxCell>
        <mxCell id="F4rRmqgm7zPYYx4MkBIU-38" style="edgeStyle=orthogonalEdgeStyle;rounded=0;orthogonalLoop=1;jettySize=auto;html=1;" parent="1" source="F4rRmqgm7zPYYx4MkBIU-35" target="F4rRmqgm7zPYYx4MkBIU-37" edge="1">
          <mxGeometry relative="1" as="geometry" />
        </mxCell>
        <mxCell id="F4rRmqgm7zPYYx4MkBIU-39" style="edgeStyle=orthogonalEdgeStyle;rounded=0;orthogonalLoop=1;jettySize=auto;html=1;exitX=0.5;exitY=1;exitDx=0;exitDy=0;" parent="1" source="F4rRmqgm7zPYYx4MkBIU-35" target="F4rRmqgm7zPYYx4MkBIU-40" edge="1">
          <mxGeometry relative="1" as="geometry">
            <mxPoint x="870" y="100" as="targetPoint" />
          </mxGeometry>
        </mxCell>
        <mxCell id="F4rRmqgm7zPYYx4MkBIU-35" value="Payment Service" style="rounded=1;whiteSpace=wrap;html=1;" parent="1" vertex="1">
          <mxGeometry x="670" y="-30" width="120" height="60" as="geometry" />
        </mxCell>
        <mxCell id="F4rRmqgm7zPYYx4MkBIU-37" value="Payment Schedule" style="shape=cylinder3;whiteSpace=wrap;html=1;boundedLbl=1;backgroundOutline=1;size=15;" parent="1" vertex="1">
          <mxGeometry x="920" y="-40" width="60" height="80" as="geometry" />
        </mxCell>
        <mxCell id="F4rRmqgm7zPYYx4MkBIU-40" value="External&lt;br&gt;Payment Gateway" style="rounded=1;whiteSpace=wrap;html=1;" parent="1" vertex="1">
          <mxGeometry x="670" y="90" width="120" height="60" as="geometry" />
        </mxCell>
        <mxCell id="F4rRmqgm7zPYYx4MkBIU-42" value="First Time login:&lt;div&gt;- Recommend streams based on User demographic data, location, what are popular for those audience&lt;/div&gt;&lt;div&gt;&lt;br&gt;&lt;/div&gt;&lt;div&gt;Nth Time login:&lt;/div&gt;&lt;div&gt;- Extend the previous criteria by user recommendation based on user activity data (like, follow, subscribe, share, etc.)&lt;/div&gt;" style="whiteSpace=wrap;html=1;shape=mxgraph.basic.document" parent="1" vertex="1">
          <mxGeometry x="30" y="-553" width="320" height="140" as="geometry" />
        </mxCell>
        <mxCell id="F4rRmqgm7zPYYx4MkBIU-43" value="Stream Recommender Service" style="rounded=1;whiteSpace=wrap;html=1;" parent="1" vertex="1">
          <mxGeometry x="920" y="-460" width="120" height="60" as="geometry" />
        </mxCell>
        <mxCell id="F4rRmqgm7zPYYx4MkBIU-47" style="edgeStyle=orthogonalEdgeStyle;rounded=0;orthogonalLoop=1;jettySize=auto;html=1;" parent="1" source="F4rRmqgm7zPYYx4MkBIU-46" target="F4rRmqgm7zPYYx4MkBIU-16" edge="1">
          <mxGeometry relative="1" as="geometry" />
        </mxCell>
        <mxCell id="F4rRmqgm7zPYYx4MkBIU-48" style="edgeStyle=orthogonalEdgeStyle;rounded=0;orthogonalLoop=1;jettySize=auto;html=1;" parent="1" source="F4rRmqgm7zPYYx4MkBIU-46" target="F4rRmqgm7zPYYx4MkBIU-49" edge="1">
          <mxGeometry relative="1" as="geometry">
            <mxPoint x="1080" y="-620" as="targetPoint" />
          </mxGeometry>
        </mxCell>
        <mxCell id="F4rRmqgm7zPYYx4MkBIU-46" value="Machine Learning Models/Pipelines" style="rounded=1;whiteSpace=wrap;html=1;" parent="1" vertex="1">
          <mxGeometry x="920" y="-790" width="120" height="60" as="geometry" />
        </mxCell>
        <mxCell id="F4rRmqgm7zPYYx4MkBIU-49" value="Stream Recommendations&lt;div&gt;DB&lt;/div&gt;" style="shape=cylinder3;whiteSpace=wrap;html=1;boundedLbl=1;backgroundOutline=1;size=15;" parent="1" vertex="1">
          <mxGeometry x="1120" y="-680" width="60" height="80" as="geometry" />
        </mxCell>
        <mxCell id="F4rRmqgm7zPYYx4MkBIU-50" style="edgeStyle=orthogonalEdgeStyle;rounded=0;orthogonalLoop=1;jettySize=auto;html=1;exitX=0.5;exitY=0;exitDx=0;exitDy=0;entryX=0.5;entryY=1;entryDx=0;entryDy=0;entryPerimeter=0;" parent="1" source="F4rRmqgm7zPYYx4MkBIU-52" target="F4rRmqgm7zPYYx4MkBIU-49" edge="1">
          <mxGeometry relative="1" as="geometry" />
        </mxCell>
        <mxCell id="F4rRmqgm7zPYYx4MkBIU-51" value="- What content the users consumed&lt;div&gt;- Click Stream&lt;/div&gt;&lt;div&gt;- What content that they likes&lt;/div&gt;&lt;div&gt;- Who did they subscribe to&lt;/div&gt;&lt;div&gt;- etc.&lt;/div&gt;" style="shape=note;whiteSpace=wrap;html=1;backgroundOutline=1;darkOpacity=0.05;" parent="1" vertex="1">
          <mxGeometry x="550" y="-770" width="230" height="150" as="geometry" />
        </mxCell>
        <mxCell id="F4rRmqgm7zPYYx4MkBIU-54" value="" style="edgeStyle=orthogonalEdgeStyle;rounded=0;orthogonalLoop=1;jettySize=auto;html=1;exitX=0.5;exitY=0;exitDx=0;exitDy=0;entryX=0.5;entryY=1;entryDx=0;entryDy=0;entryPerimeter=0;" parent="1" source="F4rRmqgm7zPYYx4MkBIU-43" target="F4rRmqgm7zPYYx4MkBIU-52" edge="1">
          <mxGeometry relative="1" as="geometry">
            <mxPoint x="980" y="-460" as="sourcePoint" />
            <mxPoint x="1150" y="-600" as="targetPoint" />
          </mxGeometry>
        </mxCell>
        <mxCell id="F4rRmqgm7zPYYx4MkBIU-55" value="Read through cache" style="edgeLabel;html=1;align=center;verticalAlign=middle;resizable=0;points=[];" parent="F4rRmqgm7zPYYx4MkBIU-54" vertex="1" connectable="0">
          <mxGeometry x="-0.2258" relative="1" as="geometry">
            <mxPoint x="23" y="-6" as="offset" />
          </mxGeometry>
        </mxCell>
        <mxCell id="F4rRmqgm7zPYYx4MkBIU-52" value="" style="image;sketch=0;aspect=fixed;html=1;points=[];align=center;fontSize=12;image=img/lib/mscae/Cache_Redis_Product.svg;" parent="1" vertex="1">
          <mxGeometry x="1080" y="-550" width="50" height="42" as="geometry" />
        </mxCell>
        <mxCell id="F4rRmqgm7zPYYx4MkBIU-59" style="edgeStyle=orthogonalEdgeStyle;rounded=0;orthogonalLoop=1;jettySize=auto;html=1;entryX=0.5;entryY=1;entryDx=0;entryDy=0;" parent="1" source="F4rRmqgm7zPYYx4MkBIU-56" target="F4rRmqgm7zPYYx4MkBIU-58" edge="1">
          <mxGeometry relative="1" as="geometry" />
        </mxCell>
        <mxCell id="F4rRmqgm7zPYYx4MkBIU-56" value="" style="sketch=0;points=[[0,0,0],[0.25,0,0],[0.5,0,0],[0.75,0,0],[1,0,0],[0,1,0],[0.25,1,0],[0.5,1,0],[0.75,1,0],[1,1,0],[0,0.25,0],[0,0.5,0],[0,0.75,0],[1,0.25,0],[1,0.5,0],[1,0.75,0]];outlineConnect=0;fontColor=#232F3E;fillColor=#8C4FFF;strokeColor=#ffffff;dashed=0;verticalLabelPosition=bottom;verticalAlign=top;align=center;html=1;fontSize=12;fontStyle=0;aspect=fixed;shape=mxgraph.aws4.resourceIcon;resIcon=mxgraph.aws4.managed_streaming_for_kafka;" parent="1" vertex="1">
          <mxGeometry x="1181" y="-280" width="78" height="78" as="geometry" />
        </mxCell>
        <mxCell id="F4rRmqgm7zPYYx4MkBIU-57" style="edgeStyle=orthogonalEdgeStyle;rounded=0;orthogonalLoop=1;jettySize=auto;html=1;entryX=0;entryY=0.5;entryDx=0;entryDy=0;entryPerimeter=0;" parent="1" source="F4rRmqgm7zPYYx4MkBIU-26" target="F4rRmqgm7zPYYx4MkBIU-56" edge="1">
          <mxGeometry relative="1" as="geometry">
            <Array as="points">
              <mxPoint x="720" y="-170" />
              <mxPoint x="1090" y="-170" />
              <mxPoint x="1090" y="-241" />
            </Array>
          </mxGeometry>
        </mxCell>
        <mxCell id="F4rRmqgm7zPYYx4MkBIU-58" value="Recommendations&lt;br&gt;Reresher Service" style="rounded=1;whiteSpace=wrap;html=1;" parent="1" vertex="1">
          <mxGeometry x="1160" y="-460" width="120" height="60" as="geometry" />
        </mxCell>
        <mxCell id="F4rRmqgm7zPYYx4MkBIU-60" style="edgeStyle=orthogonalEdgeStyle;rounded=0;orthogonalLoop=1;jettySize=auto;html=1;entryX=1;entryY=0.5;entryDx=0;entryDy=0;entryPerimeter=0;exitX=0.5;exitY=0;exitDx=0;exitDy=0;" parent="1" source="F4rRmqgm7zPYYx4MkBIU-58" target="F4rRmqgm7zPYYx4MkBIU-49" edge="1">
          <mxGeometry relative="1" as="geometry" />
        </mxCell>
        <mxCell id="F4rRmqgm7zPYYx4MkBIU-61" value="Cached Recommendation Entry Refresh" style="edgeLabel;html=1;align=center;verticalAlign=middle;resizable=0;points=[];" parent="F4rRmqgm7zPYYx4MkBIU-60" vertex="1" connectable="0">
          <mxGeometry x="-0.3535" y="-4" relative="1" as="geometry">
            <mxPoint x="6" y="24" as="offset" />
          </mxGeometry>
        </mxCell>
        <mxCell id="F4rRmqgm7zPYYx4MkBIU-63" style="edgeStyle=orthogonalEdgeStyle;rounded=0;orthogonalLoop=1;jettySize=auto;html=1;entryX=0;entryY=0.5;entryDx=0;entryDy=0;entryPerimeter=0;" parent="1" source="F4rRmqgm7zPYYx4MkBIU-22" target="F4rRmqgm7zPYYx4MkBIU-56" edge="1">
          <mxGeometry relative="1" as="geometry">
            <Array as="points">
              <mxPoint x="730" y="-280" />
              <mxPoint x="1090" y="-280" />
              <mxPoint x="1090" y="-241" />
            </Array>
          </mxGeometry>
        </mxCell>
        <mxCell id="Cm2MxR2_ZGQXVBMsRqpf-1" value="User Activity Ingestor" style="rounded=1;whiteSpace=wrap;html=1;" vertex="1" parent="1">
          <mxGeometry x="580" y="-559" width="120" height="60" as="geometry" />
        </mxCell>
        <mxCell id="Cm2MxR2_ZGQXVBMsRqpf-2" value="" style="sketch=0;points=[[0,0,0],[0.25,0,0],[0.5,0,0],[0.75,0,0],[1,0,0],[0,1,0],[0.25,1,0],[0.5,1,0],[0.75,1,0],[1,1,0],[0,0.25,0],[0,0.5,0],[0,0.75,0],[1,0.25,0],[1,0.5,0],[1,0.75,0]];outlineConnect=0;fontColor=#232F3E;fillColor=#8C4FFF;strokeColor=#ffffff;dashed=0;verticalLabelPosition=bottom;verticalAlign=top;align=center;html=1;fontSize=12;fontStyle=0;aspect=fixed;shape=mxgraph.aws4.resourceIcon;resIcon=mxgraph.aws4.managed_streaming_for_kafka;" vertex="1" parent="1">
          <mxGeometry x="781" y="-568" width="78" height="78" as="geometry" />
        </mxCell>
        <mxCell id="Cm2MxR2_ZGQXVBMsRqpf-4" style="edgeStyle=orthogonalEdgeStyle;rounded=0;orthogonalLoop=1;jettySize=auto;html=1;entryX=0;entryY=0.5;entryDx=0;entryDy=0;entryPerimeter=0;" edge="1" parent="1" source="Cm2MxR2_ZGQXVBMsRqpf-1" target="Cm2MxR2_ZGQXVBMsRqpf-2">
          <mxGeometry relative="1" as="geometry" />
        </mxCell>
        <mxCell id="Cm2MxR2_ZGQXVBMsRqpf-7" style="edgeStyle=orthogonalEdgeStyle;rounded=0;orthogonalLoop=1;jettySize=auto;html=1;entryX=0.5;entryY=1;entryDx=0;entryDy=0;" edge="1" parent="1" source="Cm2MxR2_ZGQXVBMsRqpf-2" target="Cm2MxR2_ZGQXVBMsRqpf-9">
          <mxGeometry relative="1" as="geometry" />
        </mxCell>
        <mxCell id="Cm2MxR2_ZGQXVBMsRqpf-8" style="edgeStyle=orthogonalEdgeStyle;rounded=0;orthogonalLoop=1;jettySize=auto;html=1;entryX=1;entryY=0.476;entryDx=0;entryDy=0;entryPerimeter=0;exitX=0.5;exitY=0;exitDx=0;exitDy=0;" edge="1" parent="1" source="F4rRmqgm7zPYYx4MkBIU-58" target="F4rRmqgm7zPYYx4MkBIU-52">
          <mxGeometry relative="1" as="geometry" />
        </mxCell>
        <mxCell id="Cm2MxR2_ZGQXVBMsRqpf-9" value="User Activity Consumer" style="rounded=1;whiteSpace=wrap;html=1;" vertex="1" parent="1">
          <mxGeometry x="920" y="-670" width="120" height="60" as="geometry" />
        </mxCell>
        <mxCell id="Cm2MxR2_ZGQXVBMsRqpf-10" style="edgeStyle=orthogonalEdgeStyle;rounded=0;orthogonalLoop=1;jettySize=auto;html=1;entryX=1;entryY=0.5;entryDx=0;entryDy=0;entryPerimeter=0;" edge="1" parent="1" source="Cm2MxR2_ZGQXVBMsRqpf-9" target="F4rRmqgm7zPYYx4MkBIU-16">
          <mxGeometry relative="1" as="geometry" />
        </mxCell>
      </root>
    </mxGraphModel>
  </diagram>
</mxfile>
